<?xml version="1.0" encoding="UTF-8"?><svg id="Layer_1" xmlns="http://www.w3.org/2000/svg" viewBox="0 0 446.09 370.34"><path d="M0,342.54c0-104.91,0-209.83,0-314.74C7.58,11.38,18.68-.01,38.4,0c123.09,.06,246.19,.01,369.28,.05,16.89,0,28.73,7.97,35.78,23.19,.73,1.58,1.74,3.04,2.62,4.56V342.54c-7.58,16.42-18.68,27.81-38.4,27.8-123.09-.06-246.19-.01-369.28-.05-16.89,0-28.73-7.97-35.78-23.19C1.89,345.52,.88,344.06,0,342.54Zm37.58-9.92H408.16V37.56H37.58V332.62Z"/><path d="M110.39,295.94h-36.01V74.61h36.01v221.32Z"/><path d="M203.32,295.94h-36.01V74.62h36.01v221.32Z"/><path d="M333.47,295.9h-36.09V74.9h36.09v220.99Z"/><path d="M147.6,295.92h-17.5V74.91h17.5v221Z"/><path d="M240.53,295.92h-17.49V74.92h17.49v221Z"/><path d="M277.66,295.97h-17.4V74.63h17.4v221.34Z"/><path d="M370.89,74.65v221.04h-17.67V74.65h17.67Z"/></svg>