<?xml version="1.0" encoding="UTF-8"?><svg id="Layer_1" xmlns="http://www.w3.org/2000/svg" viewBox="0 0 385.11 385.21"><path d="M174.92,0h35.3c1.78,.48,3.53,1.2,5.33,1.41,109.2,12.7,185.54,115.28,166.69,224.04-15.26,88.06-89.79,154.75-178.23,159.48-90.44,4.83-171.35-52.23-196.28-138.8-3.38-11.74-5.2-23.93-7.74-35.91v-35.3c.48-1.79,1.18-3.55,1.41-5.37C11.32,91.52,65.3,28.32,140.56,7.19,151.8,4.04,163.45,2.36,174.92,0Zm-2.38,265.02c40.21-40.91,80.03-81.41,119.45-121.51-7.65-7.93-14.78-15.32-20.53-21.28-33.66,31.88-67.17,63.61-101.19,95.84-14.66-13.94-30.88-29.37-45.04-42.84-8.26,7.22-16.15,14.13-24.24,21.21,23.9,22.91,47.57,45.61,71.55,68.6Z"/></svg>