<?xml version="1.0" encoding="UTF-8"?><svg id="Layer_1" xmlns="http://www.w3.org/2000/svg" viewBox="0 0 353.53 390.94"><path d="M346.47,92.43c-3.91,2.19-6.94,3.93-10.01,5.6-50.19,27.29-100.46,54.45-150.51,82-6.44,3.55-11.17,3.94-17.83,.19-50.06-28.21-100.39-55.94-150.62-83.84-2.49-1.38-4.85-2.99-8.18-5.05,2.96-1.88,4.98-3.29,7.13-4.5C65.07,59.38,113.82,32.15,162.25,4.38c10.28-5.9,18.93-5.81,29.19,.06,48.73,27.91,97.77,55.28,146.68,82.87,2.52,1.42,4.94,3.02,8.34,5.12Z"/><path d="M353.45,111.76c0,24.39,0,47.55,0,70.71,0,34-.13,68,.08,102,.06,9.71-3.1,17.05-11.85,21.86-50.06,27.54-100.08,55.18-150.12,82.76-1.09,.6-2.33,.92-4.43,1.73-.2-3.04-.49-5.46-.49-7.88-.03-57.54,0-115.07-.07-172.61,0-5.07,.25-8.85,5.84-11.85,52.08-27.94,103.93-56.29,155.86-84.51,1.11-.6,2.34-1.01,5.19-2.21Z"/><path d="M.15,109.57c3.77,1.86,6.1,2.9,8.32,4.13,50.53,28.04,101.09,56.02,151.44,84.37,3.21,1.81,6.75,6.55,6.77,9.95,.41,59.49,.29,118.98,.27,178.47,0,1.19-.32,2.39-.61,4.46-3.17-1.6-5.76-2.78-8.23-4.17-47.77-26.95-95.44-54.1-143.37-80.77C4.38,300.24-.07,292.69,0,280.83c.34-56.53,.15-113.06,.15-171.26Z"/></svg>