<?xml version="1.0" encoding="UTF-8"?><svg id="Layer_1" xmlns="http://www.w3.org/2000/svg" viewBox="0 0 600.66 150"><path d="M494.55,.29c-4.48,4.56-8.19,8.46-12.03,12.22-13.9,13.63-27.89,27.16-41.73,40.85-2.04,2.02-4.08,2.84-6.94,2.84-65.56-.08-131.13-.23-196.69,.02-13.86,.05-27.77,1.14-41.57,2.59-12.87,1.35-24.01,7.4-33.41,16.08-15.96,14.74-31.55,29.87-47.25,44.88-9.8,9.37-19.5,18.85-29.34,28.18-1.07,1.01-2.78,1.91-4.2,1.92-26.63,.11-53.26,.07-79.88,.05-.35,0-.7-.16-1.51-.35,.71-.9,1.19-1.68,1.82-2.31C38.26,111.24,74.62,75.14,111.19,39.26c12.87-12.63,26.83-23.88,44.04-30.33,10.77-4.04,21.94-6.3,33.35-7.1,45.15-3.16,90.37-1.21,135.55-1.49,55.26-.35,110.53-.06,165.79-.05,1.22,0,2.44,0,4.62,0Z"/><path d="M100.27,149.64c.95-1.11,1.52-1.89,2.2-2.57,20.67-20.52,41.46-40.93,61.98-61.6,13.06-13.16,29.01-19.21,47.11-19.32,62.15-.4,124.31-.44,186.47-.61,9.78-.03,19.57,0,30.2,0-1.09,1.32-1.67,2.16-2.38,2.87-15.81,15.79-31.61,31.61-47.53,47.29-1.17,1.15-3.23,1.98-4.88,1.98-45.59,.06-91.18-.02-136.76-.04-8.39,0-16.98-.57-24.82,2.99-4.37,1.98-8.54,4.81-12.11,8.03-6.81,6.12-13.06,12.85-19.69,19.18-1.14,1.08-2.99,2-4.51,2.01-24.24,.13-48.48,.09-72.72,.08-.7,0-1.39-.16-2.56-.3Z"/><path d="M600.66,.73c-6.78,6.78-13.14,13.18-19.54,19.53-42.57,42.3-85.17,84.57-127.7,126.92-2.04,2.03-4.08,2.83-6.93,2.82-28.13-.09-56.27-.06-84.4-.06h-3.97l-.53-1.12c4.57-4.42,9.2-8.78,13.71-13.26,39.25-39.06,78.48-78.15,117.71-117.22,5.43-5.4,10.79-10.87,16.31-16.19,.98-.95,2.55-1.82,3.85-1.82,29.89-.1,59.78-.07,89.67-.05,.34,0,.69,.16,1.8,.44Z"/></svg>