<?xml version="1.0" encoding="UTF-8"?><svg id="Layer_1" xmlns="http://www.w3.org/2000/svg" viewBox="0 0 395.41 280.55"><path d="M0,258.9V21.65C6.54,5.69,18.36-.07,35.57,0c108.95,.46,217.9,.23,326.85,.24,22.23,0,32.99,10.62,32.99,32.6,.01,71.63,.01,143.25,0,214.88,0,21.98-10.76,32.6-32.99,32.6-108.95,0-217.9-.22-326.85,.23-17.2,.07-29.03-5.69-35.57-21.65ZM44.06,73.77v189.46H350.37V74.04c-3.63,2.47-6.35,4.28-9.05,6.15-45.51,31.64-91.09,63.2-136.45,95.07-5.23,3.67-8.59,4.11-14.13,.21-45.57-32.05-91.42-63.68-137.19-95.43-2.65-1.84-5.38-3.56-9.49-6.27Zm7.81-56.71c2.87,2.24,4.11,3.31,5.45,4.24,44.98,31.42,90.01,62.75,134.86,94.35,4.45,3.13,7.25,2.63,11.4-.31,44.11-31.22,88.37-62.22,132.57-93.32,1.83-1.29,3.47-2.84,6.03-4.97H51.87Z"/></svg>