<?xml version="1.0" encoding="UTF-8"?><svg id="Layer_1" xmlns="http://www.w3.org/2000/svg" viewBox="0 0 435.78 392.44"><path d="M217.83,58c4.1-5.45,7.4-10.11,10.98-14.54,54.84-67.91,168.35-53.42,198.9,25.49,11.82,30.54,10.23,61.04-1.96,91.2-13.8,34.13-34.81,63.85-59.73,90.25-43.07,45.61-87.66,89.8-131.91,134.29-10.17,10.22-21.8,10.34-31.94,.44-51.62-50.44-105.13-99.1-150.11-155.92-19.9-25.14-37.51-51.73-46.8-82.82C-10.75,92.77,10.7,38.62,57.35,13.9,107.39-12.61,171.38-.24,206.49,42.81c3.66,4.48,6.94,9.27,11.34,15.19Z"/></svg>