<?xml version="1.0" encoding="UTF-8"?><svg id="Layer_1" xmlns="http://www.w3.org/2000/svg" viewBox="0 0 363.54 396.82"><path d="M239.63,396.82H48.16c.3-2.72,.62-5.44,.91-8.16,2.14-20.2,5.11-40.36,6.21-60.62,1.4-25.78-4.3-49.54-19.4-71.7-10.99-16.13-19.68-34.44-26.14-52.92C-11.99,141.3,3.06,79.61,50.68,40.95,102.76-1.33,162.72-9.69,225.59,10.44c53.83,17.24,83.64,58.83,101.41,110.43,4.49,13.05,5.49,25.6-1.37,38.22-3.65,6.72-2.35,12.92,2.82,18.9,10.07,11.63,19.68,23.66,29.38,35.61,10.01,12.33,6.61,24.81-8.27,30.72-4.34,1.72-8.6,3.78-13.08,4.95-4.51,1.17-5.51,3.8-6.43,8.07-3.92,18.23-8.24,36.4-12.93,54.45-2.81,10.84-8.87,19.7-19.97,23.51-5.66,1.94-11.72,3.09-17.69,3.7-16.02,1.65-26.52,9.89-31.1,25.24-3.21,10.77-5.84,21.72-8.74,32.59Zm-54.4-170.52c5.37-13.24,9.8-24.92,14.84-36.32,3.54-8,8.79-15.32,11.77-23.49,9.77-26.83-4.58-54.15-31.75-61.62-29.09-8-57.26,7.9-63.23,35.59-3.22,14.97,1.32,28.21,8.76,40.83,8.22,13.95,16.72,27.77,16.92,45.01h42.7Zm-19.6,8.69c-5.78,0-11.58-.3-17.32,.17-1.94,.16-3.73,2.25-5.58,3.45,1.88,1.52,3.72,4.29,5.65,4.36,11.54,.41,23.11,.37,34.65,0,1.78-.06,3.47-2.61,5.2-4.01-1.76-1.32-3.43-3.62-5.28-3.78-5.73-.5-11.54-.18-17.31-.19Zm-15.99,16.99c11.73,10.95,20.61,10.87,31.03,0h-31.03Z"/></svg>