<?xml version="1.0" encoding="UTF-8"?><svg id="Layer_1" xmlns="http://www.w3.org/2000/svg" viewBox="0 0 333.39 499.91"><path d="M31.28,0C121.56,0,211.83,0,302.11,0c18.52,8.46,31.29,20.95,31.28,43.03-.06,137.95-.01,275.91-.06,413.86,0,18.92-8.94,32.21-26.1,40.09-1.78,.82-3.42,1.95-5.13,2.94H31.28C12.76,491.46-.01,478.97,0,456.89,.07,318.93,.01,180.98,.06,43.03,.06,24.11,9,10.82,26.15,2.94c1.78-.82,3.42-1.95,5.13-2.94Zm10.87,395.01h248.74V104.44H42.15V395.01ZM165.65,62.48c9.67,0,19.34-.09,29.01,.03,7.51,.1,13.51-2.3,13.4-10.69-.1-7.71-5.72-10.22-12.87-10.19-18.99,.08-37.99,.09-56.98,0-7.15-.03-12.76,2.48-12.88,10.18-.12,8.38,5.86,10.8,13.38,10.7,8.98-.12,17.96-.03,26.94-.03Zm.9,395.72c11.15,.08,20.55-8.97,20.9-20.12,.37-11.54-9.09-21.36-20.63-21.43-11.15-.07-20.55,8.98-20.91,20.12-.37,11.53,9.09,21.35,20.64,21.43Z"/></svg>