<?xml version="1.0" encoding="UTF-8"?><svg id="Layer_1" xmlns="http://www.w3.org/2000/svg" viewBox="0 0 419.53 419.53"><path d="M229,419.53h-38.46c-1.94-.52-3.84-1.31-5.81-1.53-82.5-9.61-152.73-68.55-175.86-148.2-3.87-13.33-5.96-27.19-8.87-40.8v-38.46c.52-1.95,1.29-3.87,1.54-5.85C12.33,99.7,71.11,30.87,153.11,7.83,165.35,4.39,178.05,2.57,190.54,0c12.82,0,25.64,0,38.46,0,1.94,.52,3.84,1.31,5.81,1.53,82.5,9.61,152.73,68.56,175.86,148.2,3.87,13.33,5.96,27.19,8.87,40.8v38.46c-.52,1.95-1.29,3.87-1.54,5.85-10.79,84.99-69.59,153.84-151.57,176.86-12.24,3.44-24.94,5.26-37.43,7.83Zm-123.82-140.1c29.66-23.74,57.9-46.35,87.05-69.68-29.28-23.43-57.65-46.12-87.05-69.64v139.32Zm87.58-139.2v139.05c29.46-23.58,57.71-46.19,86.87-69.52-29.15-23.33-57.39-45.94-86.87-69.53Zm87.34-.02v138.75h34.07V140.22h-34.07Z"/></svg>